<svg width="50" height="13" viewBox="0 0 50 13" fill="none" xmlns="http://www.w3.org/2000/svg">
<path d="M0 4.18049C0.692704 4.18049 1.38642 4.18049 2.10165 4.18049C2.10165 4.6273 2.10165 5.06255 2.10165 5.55469C2.66014 4.40633 3.60076 3.9894 4.76666 4.0145C5.94242 4.03961 6.83502 4.55882 7.3651 5.60681C7.55221 5.37133 7.72268 5.11467 7.9353 4.89942C8.4781 4.3494 9.16004 4.08691 9.92918 4.02414C10.4377 3.98267 10.9383 4.0261 11.4234 4.18727C12.3199 4.4835 12.8715 5.11658 13.1879 5.96967C13.4153 6.58246 13.4789 7.22231 13.48 7.86985C13.4819 9.3772 13.4809 10.8846 13.4809 12.392C13.4809 12.4296 13.476 12.4682 13.4721 12.5213C12.7872 12.5213 12.1053 12.5213 11.3998 12.5213C11.3998 12.446 11.3998 12.3717 11.3998 12.2974C11.3998 10.8981 11.4077 9.49976 11.3939 8.10045C11.391 7.77912 11.3528 7.44714 11.2626 7.13932C11.0775 6.5091 10.6425 6.10478 9.96835 6.02952C9.2051 5.94456 8.55554 6.16171 8.13519 6.84494C7.92941 7.17888 7.82753 7.54942 7.82361 7.93738C7.80893 9.38011 7.80304 10.8228 7.7952 12.2665C7.7952 12.3486 7.7952 12.4306 7.7952 12.5252C7.08977 12.5252 6.39998 12.5252 5.68767 12.5252C5.68767 12.4451 5.68767 12.3698 5.68767 12.2955C5.68671 10.8007 5.69064 9.30581 5.67982 7.81095C5.6759 7.32845 5.54953 6.87005 5.21346 6.50238C4.69224 5.93206 4.03282 5.91273 3.35385 6.12601C2.57585 6.37018 2.23396 6.9675 2.14379 7.72701C2.11246 7.99241 2.11145 8.26258 2.1105 8.52994C2.10753 9.78158 2.10949 11.0342 2.10949 12.2858C2.10949 12.3611 2.10949 12.4373 2.10949 12.5377C1.39718 12.5377 0.698587 12.5377 0.00100848 12.5377C-2.33423e-07 9.7507 0 6.9656 0 4.18049Z" fill="#0A0103"/>
<path d="M21.7159 5.1707C21.7159 4.8831 21.7159 4.54339 21.7159 4.19214C22.4203 4.19214 23.1052 4.19214 23.8058 4.19214C23.8058 6.96082 23.8058 9.73432 23.8058 12.5214C23.1219 12.5214 22.4331 12.5214 21.7267 12.5214C21.7267 12.173 21.7267 11.8246 21.7267 11.4647C21.6914 11.4763 21.6688 11.4763 21.66 11.4878C21.1026 12.2309 20.3118 12.5725 19.4183 12.6777C18.0485 12.8398 16.8561 12.4374 15.8959 11.4482C15.2042 10.736 14.8534 9.86557 14.7535 8.89088C14.6467 7.85347 14.7956 6.85855 15.3512 5.96298C16.2164 4.5685 17.5116 3.94411 19.1587 4.02038C19.92 4.05607 20.6175 4.28477 21.2211 4.75763C21.3965 4.89566 21.564 5.04332 21.7159 5.1707ZM19.2233 5.94079C17.8761 5.94174 16.8552 6.96951 16.8532 8.32633C16.8512 9.69476 17.8898 10.765 19.2253 10.7689C20.596 10.7737 21.6836 9.69381 21.6816 8.33216C21.6786 7.00235 20.5862 5.93984 19.2233 5.94079Z" fill="#0A0103"/>
<path d="M39.7497 5.17551C39.7497 4.88215 39.7497 4.54148 39.7497 4.19118C40.4542 4.19118 41.139 4.19118 41.8386 4.19118C41.8386 6.96278 41.8386 9.73628 41.8386 12.5223C41.1517 12.5223 40.4629 12.5223 39.7565 12.5223C39.7565 12.1711 39.7565 11.8236 39.7565 11.4406C39.5919 11.6114 39.4635 11.7687 39.3117 11.8979C38.6219 12.4847 37.796 12.7192 36.9053 12.7134C35.7315 12.7057 34.7174 12.2859 33.9111 11.4338C33.2155 10.6975 32.8647 9.80964 32.7775 8.81275C32.6854 7.75988 32.8559 6.75723 33.4437 5.86362C34.3148 4.54053 35.5826 3.94803 37.1719 4.01942C37.94 4.05416 38.6445 4.28191 39.2529 4.75959C39.4283 4.89761 39.5939 5.04528 39.7497 5.17551ZM37.2512 5.94079C35.905 5.94275 34.884 6.97147 34.883 8.32829C34.8821 9.69577 35.9226 10.766 37.2571 10.7689C38.6288 10.7718 39.7154 9.6919 39.7115 8.33025C39.7085 7.00044 38.6161 5.93888 37.2512 5.94079Z" fill="#0A0103"/>
<path d="M31.6625 6.60468C30.9992 6.60468 30.3408 6.60468 29.6843 6.60468C29.4707 5.74481 28.5703 5.38582 27.8227 5.85677C27.275 6.20226 27.2877 6.89227 27.8746 7.15762C28.2401 7.32361 28.6457 7.4047 29.0367 7.51375C29.6393 7.68164 30.2555 7.80515 30.8012 8.13231C31.9878 8.84356 32.319 10.3365 31.5165 11.4395C31.0864 12.0301 30.4671 12.3572 29.7686 12.5416C28.6291 12.8427 27.5209 12.7799 26.4823 12.1883C25.6417 11.7087 25.1607 10.9888 25.0852 10.0228C25.0832 9.9987 25.0881 9.9736 25.0901 9.93886C25.7417 9.93886 26.3874 9.93886 27.0497 9.93886C27.1173 10.5121 27.4641 10.8489 28.0216 10.9821C28.4762 11.0901 28.924 11.0506 29.3463 10.845C29.7069 10.6694 29.8646 10.3818 29.8293 10.0276C29.8009 9.7449 29.6255 9.56636 29.3796 9.47759C29.0288 9.35117 28.6654 9.25753 28.3038 9.16198C27.7238 9.00854 27.1418 8.86766 26.6038 8.5859C25.289 7.89683 25.0735 6.47629 25.5437 5.54699C25.8759 4.88981 26.4314 4.46711 27.1232 4.23746C28.3254 3.83885 29.5011 3.91125 30.5945 4.57711C31.3147 5.01624 31.6497 5.69364 31.6772 6.52168C31.6792 6.54679 31.6704 6.57088 31.6625 6.60468Z" fill="#0A0103"/>
<path d="M45.79 4.198C45.79 6.97442 45.79 9.7431 45.79 12.5234C45.0934 12.5234 44.4046 12.5234 43.7031 12.5234C43.7031 9.74983 43.7031 6.98215 43.7031 4.198C44.3899 4.198 45.0787 4.198 45.79 4.198Z" fill="#0A0103"/>
<path d="M45.7902 4.198H43.7042V9.81646L45.7902 7.28516V4.198Z" fill="#ED0331"/>
<path d="M44.7382 2.31802C45.3881 2.31802 45.9149 1.79911 45.9149 1.15901C45.9149 0.518903 45.3881 0 44.7382 0C44.0883 0 43.5614 0.518903 43.5614 1.15901C43.5614 1.79911 44.0883 2.31802 44.7382 2.31802Z" fill="#0A0103"/>
<path d="M47.2488 11.627C47.2488 11.4253 47.2975 11.2382 47.3951 11.0655C47.4937 10.8927 47.6295 10.757 47.8026 10.6582C47.9767 10.5584 48.1644 10.5084 48.3658 10.5084C48.5672 10.5084 48.7544 10.5584 48.9274 10.6582C49.1005 10.757 49.2357 10.8927 49.3332 11.0655C49.4318 11.2382 49.4811 11.4253 49.4811 11.627C49.4811 11.8236 49.434 12.0078 49.3393 12.1795C49.2452 12.3512 49.111 12.4895 48.9369 12.5943C48.7638 12.6981 48.5734 12.75 48.3658 12.75C48.1591 12.75 47.9688 12.6986 47.7947 12.5958C47.6217 12.4919 47.4874 12.3542 47.392 12.1825C47.2965 12.0108 47.2488 11.8256 47.2488 11.627ZM47.4297 11.627C47.4297 11.7987 47.4716 11.9579 47.5556 12.1047C47.6395 12.2504 47.7532 12.3647 47.8969 12.4476C48.0417 12.5304 48.198 12.5718 48.3658 12.5718C48.5347 12.5718 48.6915 12.5299 48.8362 12.446C48.9809 12.3612 49.0942 12.2464 49.1763 12.1016C49.2586 11.9569 49.3001 11.7987 49.3001 11.627C49.3001 11.4563 49.2586 11.299 49.1763 11.1553C49.0942 11.0105 48.9809 10.8967 48.8362 10.8139C48.6915 10.7301 48.5347 10.6881 48.3658 10.6881C48.198 10.6881 48.0417 10.7296 47.8969 10.8124C47.7522 10.8943 47.6379 11.0081 47.554 11.1538C47.4711 11.2995 47.4297 11.4573 47.4297 11.627ZM48.1345 11.7393V12.2454H47.9127V10.9741H48.3469C48.5074 10.9741 48.6317 11.0071 48.7198 11.0729C48.8089 11.1378 48.8535 11.2327 48.8535 11.3574C48.8535 11.4802 48.7863 11.5741 48.6521 11.639C48.7801 11.6888 48.8446 11.7907 48.8456 11.9444V12.0357C48.8456 12.1216 48.8545 12.1835 48.8724 12.2214V12.2454H48.6442C48.6295 12.2094 48.6222 12.1456 48.6222 12.0537C48.6222 11.9609 48.6206 11.906 48.6175 11.889C48.6007 11.7932 48.532 11.7433 48.4114 11.7393H48.1345ZM48.1345 11.5476H48.3799C48.4555 11.5456 48.5163 11.5281 48.5625 11.4952C48.6086 11.4623 48.6317 11.4188 48.6317 11.3649C48.6317 11.2921 48.6112 11.2406 48.5703 11.2107C48.5294 11.1798 48.4565 11.1643 48.3516 11.1643H48.1345V11.5476Z" fill="#0A0103"/>
</svg>
